<?xml version="1.0" standalone="no"?>
<!DOCTYPE svg PUBLIC "-//W3C//DTD SVG 1.1//EN" "http://www.w3.org/Graphics/SVG/1.1/DTD/svg11.dtd" >
<svg>
<metadata>
Created by FontForge 20090914 at Fri Feb 24 13:21:48 2012
 By root
Copyright (c) 2008 by \(c\) Ingo Zimmermann . ingoFont Augsburg. All rights reserved.
</metadata>
<defs>
<font id="FaberDrei-Normalreduced" horiz-adv-x="531" >
  <font-face 
    font-family="FaberDrei"
    font-weight="400"
    font-stretch="normal"
    units-per-em="1000"
    panose-1="2 0 5 3 7 0 0 2 0 3"
    ascent="800"
    descent="-200"
    x-height="452"
    cap-height="663"
    bbox="-77 -266.945 973.882 751"
    underline-thickness="41"
    underline-position="-64"
    stemh="24"
    stemv="68"
    unicode-range="U+0020-U+FB02"
  />
<missing-glyph horiz-adv-x="1000" 
 />
    <glyph glyph-name=".notdef" horiz-adv-x="1000" 
 />
    <glyph glyph-name="space" unicode=" " horiz-adv-x="224" 
 />
    <glyph glyph-name="exclam" unicode="!" horiz-adv-x="283" 
 />
    <glyph glyph-name="quotedbl" unicode="&#x22;" horiz-adv-x="372" 
 />
    <glyph glyph-name="percent" unicode="%" horiz-adv-x="913" 
 />
    <glyph glyph-name="ampersand" unicode="&#x26;" horiz-adv-x="676" 
 />
    <glyph glyph-name="quotesingle" unicode="'" horiz-adv-x="195" 
 />
    <glyph glyph-name="parenleft" unicode="(" horiz-adv-x="310" 
 />
    <glyph glyph-name="parenright" unicode=")" horiz-adv-x="264" 
 />
    <glyph glyph-name="asterisk" unicode="*" horiz-adv-x="313" 
 />
    <glyph glyph-name="plus" unicode="+" horiz-adv-x="626" 
 />
    <glyph glyph-name="comma" unicode="," horiz-adv-x="200" 
 />
    <glyph glyph-name="hyphen" unicode="-" horiz-adv-x="333" 
 />
    <glyph glyph-name="period" unicode="." horiz-adv-x="221" 
 />
    <glyph glyph-name="slash" unicode="/" horiz-adv-x="404" 
 />
    <glyph glyph-name="zero" unicode="0" 
 />
    <glyph glyph-name="one" unicode="1" 
 />
    <glyph glyph-name="two" unicode="2" 
 />
    <glyph glyph-name="three" unicode="3" 
 />
    <glyph glyph-name="four" unicode="4" 
 />
    <glyph glyph-name="five" unicode="5" 
 />
    <glyph glyph-name="six" unicode="6" 
 />
    <glyph glyph-name="seven" unicode="7" 
 />
    <glyph glyph-name="eight" unicode="8" 
 />
    <glyph glyph-name="nine" unicode="9" 
 />
    <glyph glyph-name="colon" unicode=":" horiz-adv-x="242" 
 />
    <glyph glyph-name="semicolon" unicode=";" horiz-adv-x="279" 
 />
    <glyph glyph-name="less" unicode="&#x3c;" horiz-adv-x="626" 
 />
    <glyph glyph-name="equal" unicode="=" horiz-adv-x="626" 
 />
    <glyph glyph-name="greater" unicode="&#x3e;" horiz-adv-x="626" 
 />
    <glyph glyph-name="question" unicode="?" horiz-adv-x="417" 
 />
    <glyph glyph-name="at" unicode="@" horiz-adv-x="502" 
 />
    <glyph glyph-name="A" unicode="A" horiz-adv-x="655" 
d="M605 0c0 0 -53 1 -79 1c-25 0 -86 -1 -86 -1c-3 7 -3 18 0 25c24 0 47 10 33 47l-55 145c-75 10 -184 8 -266 0l-59 -145c-16 -38 11 -47 33 -47c3 -6 3 -17 0 -26c0 0 -46 1 -72 1c-25 0 -76 -1 -76 -1c-5 10 -3 21 0 26c24 0 41 9 54 43l227 559c19 47 16 59 16 59
l31 10l245 -623c15 -39 32 -48 54 -48c3 -6 4 -16 0 -25zM401 257l-97 249c-9 23 -19 60 -19 60s-11 -39 -20 -62l-97 -247c59 5 175 5 233 0z" />
    <glyph glyph-name="B" unicode="B" horiz-adv-x="526" 
d="M438 186c0 -134 -106 -192 -224 -189c0 0 -96 5 -153 4c-15 0 -39 -1 -39 -1c-4 7 -5 17 0 25c24 0 37 10 37 26c2 114 2 468 0 559c0 16 -14 26 -48 26c-3 8 -4 18 0 27c0 0 35 -2 50 -2c58 0 156 5 156 5c98 2 202 -34 202 -158c0 -131 -125 -157 -125 -157
s144 -25 144 -165zM344 502c0 96 -55 127 -148 124l-65 -2v-257h66c78 0 147 31 147 135zM361 193c0 105 -76 135 -170 135h-59v-289l77 -3c71 -1 152 41 152 157z" />
    <glyph glyph-name="C" unicode="C" horiz-adv-x="670" 
d="M608 114l-16 -67c-51 -34 -147 -60 -216 -60c-186 0 -334 152 -334 344c0 193 132 343 335 344c144 1 227 -58 227 -58l-10 -94c-10 -4 -24 -4 -33 0c0 0 -2 34 -13 48c-17 20 -53 58 -170 58c-158 0 -251 -139 -251 -298c0 -158 102 -290 250 -293c113 -3 180 46 218 82
c6 -1 9 -3 13 -6z" />
    <glyph glyph-name="D" unicode="D" horiz-adv-x="730" 
d="M650 346c0 -209 -128 -348 -345 -346c0 0 -131 2 -206 2c-25 0 -75 -2 -75 -2c-5 6 -4 16 0 25c24 0 38 10 38 26c2 116 2 440 0 560c0 16 -16 26 -48 26c-5 7 -4 17 0 26c0 0 59 -3 85 -3c68 0 192 2 192 2c211 3 359 -121 359 -316zM565 348c-1 188 -158 272 -302 270
l-120 -2c-2 -122 -2 -443 0 -566c41 -5 108 -5 140 -6c161 -6 283 85 282 304z" />
    <glyph glyph-name="E" unicode="E" horiz-adv-x="479" 
d="M415 569c-6 -8 -18 -10 -29 -7c-7 22 -33 53 -72 55c-73 2 -178 1 -178 1v-250s111 -1 159 1c28 1 51 21 51 42c8 6 18 6 25 0c0 0 -4 -38 -5 -64c-1 -25 -3 -65 -3 -65c-9 -5 -19 -3 -25 0c0 24 -13 43 -43 44c-50 1 -158 0 -158 0v-281s113 -1 186 2c28 1 61 28 74 60
c10 3 18 3 28 -6l-31 -101s-180 1 -295 1c-25 0 -74 -1 -74 -1c-4 9 -4 19 0 25c24 0 37 10 37 26c2 114 2 454 0 560c0 16 -14 26 -47 26c-5 8 -5 18 0 26c0 0 58 -2 84 -2c25 0 133 1 219 1c26 0 66 5 66 5z" />
    <glyph glyph-name="F" unicode="F" horiz-adv-x="447" 
d="M389 667l30 -99c-6 -7 -18 -11 -28 -7c-8 22 -34 52 -73 55c-76 4 -184 -1 -184 -1v-248s113 -1 161 1c28 0 51 21 51 42c9 5 19 4 25 0c0 0 -7 -51 -10 -77c-2 -26 -3 -73 -3 -73c-6 -5 -17 -6 -25 0c0 24 -7 63 -41 64c-50 1 -157 0 -157 0v-273c1 -16 14 -26 54 -26
c4 -5 6 -15 0 -25c0 0 -64 1 -90 1c-25 0 -74 -1 -74 -1c-6 8 -5 18 0 25c24 0 37 10 38 26c0 117 0 475 -1 560c0 16 -14 26 -47 26c-4 7 -5 17 0 26c0 0 58 -2 84 -2c25 0 137 1 223 1c26 0 67 5 67 5z" />
    <glyph glyph-name="G" unicode="G" horiz-adv-x="748" 
d="M635 261c0 0 -3 -78 -4 -152c0 -24 1 -64 1 -64c-51 -35 -159 -58 -247 -58c-186 0 -343 144 -343 344c0 198 133 343 335 344c144 1 232 -58 232 -58l-10 -94c-8 -7 -22 -7 -32 0c0 0 -2 34 -14 48c-17 20 -58 58 -175 58c-158 0 -246 -123 -246 -298
c0 -166 111 -294 261 -297c54 -1 126 14 169 34c0 0 4 67 0 114c-1 17 -23 28 -53 28c-4 8 -3 19 0 25c32 0 119 32 119 32z" />
    <glyph glyph-name="H" unicode="H" horiz-adv-x="692" 
d="M608 0c0 0 -49 1 -75 1c-25 0 -75 -1 -75 -1c-6 9 -5 20 0 25c24 0 37 10 38 26c3 123 2 273 2 273h-364s0 -153 1 -273c1 -16 17 -26 38 -26c5 -6 6 -16 0 -25c0 0 -49 1 -75 1c-25 0 -75 -1 -75 -1c-6 9 -5 19 0 25c23 0 37 10 37 26c2 120 2 448 0 560
c0 16 -16 26 -37 26c-4 8 -4 18 0 26c0 0 49 -2 75 -2c25 0 76 2 76 2c6 -8 6 -18 0 -25c-23 0 -37 -11 -38 -27c-1 -111 -2 -243 -2 -243h364s2 133 -2 243c-1 16 -17 26 -38 26c-5 9 -5 20 0 26c0 0 49 -2 75 -2c25 0 75 2 75 2c6 -7 6 -17 0 -25c-23 0 -37 -10 -37 -27
c-2 -114 -2 -432 0 -560c0 -16 15 -26 37 -26c4 -7 5 -17 0 -25z" />
    <glyph glyph-name="I" unicode="I" horiz-adv-x="258" 
d="M174 0c0 0 -49 1 -75 1c-25 0 -75 -1 -75 -1c-6 9 -5 19 0 25c24 0 37 10 37 26c2 99 2 458 0 560c0 16 -16 26 -37 26c-6 8 -6 18 0 26c0 0 49 -2 75 -2c25 0 75 2 75 2c5 -6 6 -17 0 -25c-23 0 -37 -10 -38 -27c-1 -100 0 -463 0 -560c1 -16 16 -26 38 -26
c4 -6 4 -16 0 -25z" />
    <glyph glyph-name="J" unicode="J" horiz-adv-x="258" 
d="M174 638c-23 0 -37 -10 -38 -27c-1 -108 -1 -517 -1 -517c0 -228 -134 -347 -134 -347c-20 6 -28 23 -18 32c0 0 80 62 80 302c0 0 0 423 -2 530c0 16 -16 26 -37 26c-7 8 -7 19 0 26c0 0 49 -2 75 -2c25 0 75 2 75 2c5 -6 6 -17 0 -25z" />
    <glyph glyph-name="K" unicode="K" horiz-adv-x="628" 
d="M599 0c0 0 -72 -5 -118 6c-43 11 -97 84 -150 147l-166 198s211 204 288 309l125 11c5 -2 8 -6 7 -14c-12 -5 -48 -26 -68 -44l-247 -223l-28 -26s19 -15 30 -28l160 -189c72 -84 136 -122 167 -122c5 -5 6 -15 0 -25zM174 0c0 0 -49 1 -75 1c-25 0 -75 -1 -75 -1
c-5 9 -6 20 0 25c24 0 37 10 37 26c2 116 2 431 0 560c0 16 -16 26 -37 26c-8 10 -6 20 0 26c0 0 49 -2 75 -2c25 0 75 2 75 2c6 -7 5 -17 0 -25c-23 0 -37 -10 -38 -27c-1 -125 0 -442 0 -560c1 -16 16 -26 38 -26c5 -6 6 -17 0 -25z" />
    <glyph glyph-name="L" unicode="L" horiz-adv-x="436" 
d="M424 96l-30 -96s-180 1 -295 1c-25 0 -75 -1 -75 -1c-6 8 -5 18 0 25c24 0 37 10 37 26c2 153 2 431 0 560c0 16 -16 26 -37 26c-5 7 -6 18 0 26c0 0 49 -2 75 -2c25 0 85 2 85 2c6 -7 6 -18 0 -25c-32 0 -47 -10 -48 -27c-1 -127 0 -568 0 -568s117 -1 190 2
c28 1 66 35 73 57c11 4 18 4 25 -6z" />
    <glyph glyph-name="M" unicode="M" horiz-adv-x="891" 
d="M841 0c0 0 -53 1 -80 1c-25 0 -85 -1 -85 -1c-4 7 -4 18 0 25c24 0 39 12 33 59l-44 358c-4 30 -11 70 -11 70s-13 -42 -26 -71l-206 -480h-11l-212 489c-10 24 -26 71 -26 71s-6 -49 -9 -79l-42 -360c-5 -46 10 -57 32 -57c4 -7 5 -17 0 -25c0 0 -44 1 -70 1
c-25 0 -71 -1 -71 -1c-5 7 -5 18 0 25c23 0 47 14 53 57l77 611c6 3 14 2 21 0l233 -522c15 -34 27 -74 27 -74s14 45 28 77l227 521c5 5 15 4 19 0l85 -612c7 -45 36 -58 58 -58c3 -7 4 -17 0 -25z" />
    <glyph glyph-name="N" unicode="N" horiz-adv-x="723" 
d="M636 638c-22 0 -37 -10 -37 -27c-2 -157 0 -639 0 -639c-4 -2 -11 -3 -16 0l-422 500c-22 27 -45 63 -45 63s2 -40 2 -75c0 0 -1 -264 0 -409c0 -17 24 -26 48 -26c5 -7 5 -18 0 -25c0 0 -51 1 -77 1c-25 0 -65 -1 -65 -1c-6 8 -5 18 0 25c24 0 37 10 37 26
c2 145 0 643 0 643c6 1 12 1 18 0l415 -496c24 -29 51 -71 51 -71s-2 49 -2 90c0 0 1 235 0 394c0 16 -11 26 -48 26c-7 9 -5 20 0 26c0 0 51 -2 77 -2c25 0 64 2 64 2c7 -8 5 -18 0 -25z" />
    <glyph glyph-name="O" unicode="O" horiz-adv-x="809" 
d="M726 331c0 -203 -156 -344 -343 -344c-186 0 -342 141 -342 344s156 344 342 344c187 0 343 -141 343 -344zM640 330c0 170 -105 297 -258 297s-256 -128 -256 -297c0 -153 103 -295 256 -295s258 142 258 295z" />
    <glyph glyph-name="P" unicode="P" horiz-adv-x="478" 
d="M431 481c0 -161 -153 -194 -255 -181l-42 5s1 -136 2 -254c1 -16 16 -26 51 -26c5 -6 7 -16 1 -25c0 0 -63 1 -89 1c-25 0 -75 -1 -75 -1c-6 8 -6 19 0 25c24 0 37 10 37 26c2 107 2 469 0 560c0 16 -14 26 -47 26c-6 7 -6 18 0 26c0 0 59 -3 85 -3c48 0 124 2 124 2
c103 2 208 -48 208 -181zM352 475c0 101 -52 151 -150 150l-69 -1v-275l62 -13c93 -19 157 35 157 139z" />
    <glyph glyph-name="Q" unicode="Q" horiz-adv-x="809" 
d="M726 331c0 -203 -156 -344 -343 -344c-186 0 -342 141 -342 344s156 344 342 344c187 0 343 -141 343 -344zM735 -132c0 0 -64 -21 -127 -21c-70 0 -136 37 -312 78c-6 5 -6 13 0 18l119 9c219 -59 275 -74 320 -66c6 -3 6 -11 0 -18zM640 330c0 170 -105 297 -258 297
s-256 -128 -256 -297c0 -153 103 -295 256 -295s258 142 258 295z" />
    <glyph glyph-name="R" unicode="R" horiz-adv-x="590" 
d="M579 0c0 0 -65 -5 -111 6c-44 11 -62 52 -135 147c-92 120 -114 157 -197 157c0 0 1 -160 2 -259c0 -19 16 -26 38 -26c7 -7 7 -18 0 -25c0 0 -51 1 -77 1c-25 0 -74 -1 -74 -1c-7 8 -7 19 0 25c24 0 37 10 37 26c2 105 2 452 0 560c0 16 -16 26 -37 26c-7 8 -7 19 0 26
c0 0 48 -3 74 -3c54 0 128 4 128 4c99 2 204 -40 204 -162c0 -94 -68 -145 -117 -167c-20 -8 -46 -11 -56 -13c11 -4 35 -16 51 -31c21 -19 45 -44 71 -77l51 -67c90 -117 117 -122 148 -122c7 -7 8 -17 0 -25zM351 495c0 90 -56 130 -149 129l-66 -1v-277
c91 -5 215 24 215 149z" />
    <glyph glyph-name="S" unicode="S" horiz-adv-x="511" 
d="M430 171c0 -107 -88 -186 -203 -180c-122 6 -192 62 -192 62l11 94c9 9 23 8 32 0c0 0 4 -32 14 -48c13 -22 53 -58 133 -61c76 -4 136 56 136 126c0 68 -70 112 -139 137c-129 47 -175 118 -175 201c0 101 80 173 192 171c84 -2 153 -46 153 -46l-11 -94
c-7 -8 -23 -8 -32 0c0 0 -4 33 -14 48c-13 22 -38 43 -91 45c-77 3 -133 -49 -133 -118c0 -61 59 -99 147 -132c119 -45 172 -112 172 -205z" />
    <glyph glyph-name="T" unicode="T" horiz-adv-x="458" 
d="M518 569c-6 -9 -20 -12 -30 -7c-8 22 -34 54 -73 55c-73 2 -155 0 -155 0s-1 -422 0 -566c1 -16 17 -26 39 -26c5 -6 6 -17 0 -25c0 0 -49 1 -75 1c-25 0 -75 -1 -75 -1c-6 8 -5 18 0 25c24 0 38 10 38 26c2 145 1 566 1 566s-80 2 -153 0c-39 -1 -65 -33 -72 -54
c-9 -7 -33 -4 -40 6l30 98s52 -5 78 -5h388c26 0 68 5 68 5z" />
    <glyph glyph-name="U" unicode="U" horiz-adv-x="668" 
d="M602 638c-23 0 -39 -10 -40 -27c0 -79 -1 -338 -1 -338c0 -189 -71 -286 -248 -286c-183 0 -248 93 -248 286c0 0 -1 263 -1 338c-1 16 -19 26 -40 26c-6 9 -5 20 0 26c0 0 49 -2 75 -2c25 0 77 2 77 2c5 -6 6 -17 0 -25c-23 0 -39 -10 -40 -27v-347
c0 -147 55 -230 178 -230c120 0 177 80 177 230c0 0 0 270 -1 347c-1 16 -19 26 -40 26c-4 8 -4 18 0 26c0 0 51 -2 77 -2c25 0 75 2 75 2c4 -8 4 -18 0 -25z" />
    <glyph glyph-name="V" unicode="V" horiz-adv-x="543" 
d="M564 638c-23 0 -36 -12 -43 -27c-13 -26 -267 -648 -267 -648c-5 -4 -13 -5 -18 -1c0 0 -244 623 -256 649c-6 15 -23 26 -44 26c-5 9 -5 20 0 26c0 0 59 -2 85 -2c25 0 77 2 77 2c5 -7 4 -19 0 -25c-23 0 -41 -12 -33 -36c7 -22 164 -432 164 -432c13 -33 26 -81 26 -81
s15 49 29 83c0 0 165 394 176 430c8 23 -12 35 -33 35c-5 8 -6 19 0 26c0 0 39 -2 65 -2c25 0 72 2 72 2c5 -8 5 -18 0 -25z" />
    <glyph glyph-name="W" unicode="W" horiz-adv-x="953" 
d="M969 638c-23 0 -36 -12 -43 -27c-13 -26 -249 -648 -249 -648c-5 -3 -13 -3 -18 -1l-189 487c-17 44 -27 85 -27 85s-12 -46 -30 -96l-180 -475c-4 -3 -11 -4 -17 -1c0 0 -225 623 -237 649c-7 17 -23 26 -44 26c-6 9 -5 19 0 26c0 0 59 -2 85 -2c25 0 77 2 77 2
c7 -8 7 -18 0 -25c-23 0 -39 -10 -31 -36c7 -22 142 -411 142 -411c14 -40 26 -92 26 -92s14 49 34 100l175 461c5 3 12 3 17 0l187 -480c17 -44 28 -91 28 -91s13 51 32 101c0 0 147 376 159 412c7 24 -13 35 -34 35c-6 8 -5 19 0 26c0 0 39 -2 65 -2c25 0 72 2 72 2
c7 -7 6 -18 0 -25z" />
    <glyph glyph-name="X" unicode="X" horiz-adv-x="616" 
d="M616 0c0 0 -74 1 -100 1c-25 0 -87 -1 -87 -1c-6 8 -4 18 0 25c24 0 45 15 18 53l-128 178c-14 19 -28 43 -28 43s-13 -22 -27 -42l-138 -185c-23 -31 5 -47 33 -47c5 -7 6 -17 0 -25c0 0 -46 1 -73 1c-25 0 -98 -1 -98 -1c-7 8 -5 18 -1 25c20 0 47 12 71 43l168 218
l35 47s-17 21 -33 43l-168 235c-11 17 -32 26 -56 26c-7 8 -7 19 0 26c0 0 73 -2 99 -2c25 0 77 2 77 2c7 -7 7 -18 0 -25c-27 0 -37 -14 -19 -41l103 -149l42 -65s17 29 34 51l124 168c18 25 -2 35 -34 35c-8 9 -6 19 0 26c0 0 39 -2 65 -2c25 0 91 2 91 2
c6 -6 7 -16 0 -25c-22 0 -40 -9 -53 -27l-163 -216l-36 -45s25 -30 41 -52l161 -225c27 -36 58 -48 80 -48c6 -7 7 -17 0 -25z" />
    <glyph glyph-name="Y" unicode="Y" horiz-adv-x="486" 
d="M513 638c-23 0 -36 -13 -43 -27l-193 -360s0 -154 1 -200c0 -16 14 -26 50 -26c5 -7 6 -17 0 -25c0 0 -59 1 -85 1c-25 0 -86 -1 -86 -1c-6 8 -5 18 0 25c37 0 50 10 50 26c1 50 1 197 1 197l-195 363c-12 20 -34 26 -55 26c-5 8 -5 18 0 26c0 0 69 -2 95 -2
c25 0 77 2 77 2c6 -7 8 -18 0 -25c-26 0 -38 -17 -31 -36c8 -21 126 -243 126 -243c14 -26 28 -61 28 -61s14 32 28 59c0 0 114 210 127 245c9 22 -6 35 -33 35c-5 8 -6 19 0 26c0 0 39 -2 65 -2c25 0 72 2 72 2c7 -7 8 -17 1 -25z" />
    <glyph glyph-name="Z" unicode="Z" horiz-adv-x="546" 
d="M482 646l-361 -540c-22 -32 -47 -63 -47 -63s38 2 73 2h239c37 0 66 37 73 59c12 4 20 4 29 -6l-31 -98h-485c-3 5 -5 12 -3 18l379 558c15 23 34 44 34 44s-35 -1 -65 -1h-221c-37 0 -66 -37 -73 -59c-11 -5 -23 -1 -28 7l30 97h454c3 -6 5 -9 3 -18z" />
    <glyph glyph-name="bracketleft" unicode="[" horiz-adv-x="576" 
 />
    <glyph glyph-name="backslash" unicode="\" horiz-adv-x="332" 
 />
    <glyph glyph-name="bracketright" unicode="]" horiz-adv-x="634" 
 />
    <glyph glyph-name="asciicircum" unicode="^" horiz-adv-x="684" 
 />
    <glyph glyph-name="underscore" unicode="_" horiz-adv-x="469" 
 />
    <glyph glyph-name="grave" unicode="`" horiz-adv-x="0" 
 />
    <glyph glyph-name="a" unicode="a" horiz-adv-x="502" 
d="M425 0h-84c0 0 -10 8 -18 21c-9 15 -14 40 -14 40s-4 -7 -18 -18c-25 -20 -77 -47 -132 -49c-62 -3 -123 14 -123 106c0 74 49 96 136 126l133 47c2 117 -18 166 -90 151c-56 -11 -83 -34 -89 -97c-17 -18 -52 -23 -72 -5l5 65c40 33 112 77 181 77
c110 0 136 -60 134 -153l-3 -147c-2 -75 8 -104 19 -121c7 -13 20 -21 35 -21c6 -6 6 -15 0 -22zM304 96c0 0 -4 31 -2 109c1 21 2 37 2 37s-11 -7 -33 -15l-69 -24c-63 -22 -93 -39 -93 -102c0 -51 32 -70 69 -68c37 1 102 37 126 63z" />
    <glyph glyph-name="b" unicode="b" horiz-adv-x="572" 
d="M484 229c-3 -142 -93 -237 -225 -237c-98 0 -154 40 -197 55c3 85 1 540 0 606c0 18 -15 28 -36 28c-7 10 -3 18 0 22l96 31c5 1 10 1 13 -5c0 0 -2 -46 -2 -86v-203c0 -19 -2 -37 -2 -37s11 13 33 25c31 18 77 36 119 36c137 0 205 -86 201 -235zM408 225
c1 123 -61 198 -148 197c-41 0 -86 -24 -127 -59v-290s65 -46 132 -46c80 0 142 75 143 198z" />
    <glyph glyph-name="c" unicode="c" horiz-adv-x="417" 
d="M401 71l-30 -48s-40 -30 -121 -30c-131 0 -224 97 -226 232c-2 136 95 235 226 239c77 1 131 -18 131 -18l-8 -77c-10 -9 -22 -6 -29 0c0 0 1 29 -14 37c-21 13 -45 18 -77 17c-86 -3 -153 -64 -152 -192c1 -130 79 -191 154 -193c66 -3 112 26 129 41c6 1 15 -1 17 -8z
" />
    <glyph glyph-name="d" unicode="d" horiz-adv-x="586" 
d="M513 0h-81s-13 12 -22 24c-9 14 -11 39 -11 39s-13 -18 -26 -30c-21 -17 -69 -40 -126 -40c-124 0 -206 86 -206 227c0 136 90 243 221 243c81 0 134 -46 134 -46s-2 17 -2 38v198c0 27 -16 28 -37 28c-4 8 -3 17 0 22l100 31c6 -1 8 -1 12 -5c0 0 -7 -85 -7 -178v-335
c0 -115 3 -140 17 -169c6 -13 19 -25 33 -25c6 -5 7 -14 1 -22zM394 179v175c-25 31 -71 67 -128 68c-87 1 -145 -71 -147 -186c-2 -116 59 -205 139 -204c66 1 136 40 136 147z" />
    <glyph glyph-name="e" unicode="e" horiz-adv-x="543" 
d="M460 287c-98 -17 -194 -30 -349 -33c-10 -134 77 -206 152 -211c103 -8 177 53 177 53c6 -1 8 -3 11 -6l-10 -38s-70 -58 -192 -56c-140 2 -213 97 -214 228c-1 145 97 236 229 240c121 3 196 -75 196 -177zM376 312c-3 57 -48 114 -120 115c-75 1 -126 -43 -140 -134
c111 0 212 8 260 19z" />
    <glyph glyph-name="f" unicode="f" horiz-adv-x="305" 
d="M316 679c-3 -3 -9 -5 -14 -4c0 0 -26 21 -61 17c-87 -11 -90 -86 -92 -185c-2 -83 -1 -58 -1 -58s25 1 33 1h101l-7 -43h-95c-7 0 -31 1 -31 1s1 -25 1 -33v-45c0 0 -1 -197 1 -282c0 -16 13 -26 43 -26c3 -6 4 -15 0 -22c0 0 -51 1 -77 1c-25 0 -67 -1 -67 -1
c-7 8 -4 17 0 22c18 0 31 10 31 26c2 86 1 282 1 282v45c0 8 1 33 1 33s-24 -1 -32 -1h-38c-4 5 -3 14 -1 18l31 23h40s-2 32 -1 51c7 116 74 235 203 250c15 2 31 2 31 2v-72z" />
    <glyph glyph-name="g" unicode="g" horiz-adv-x="514" 
d="M447 -93c0 -98 -107 -150 -200 -154c-123 -5 -229 33 -229 131c0 70 61 110 151 141c-75 15 -123 34 -123 71c0 36 65 60 125 78c0 0 -31 9 -51 23c-31 21 -62 56 -62 113c0 98 90 154 170 154c36 0 77 -9 122 10c28 12 53 56 46 93c6 8 10 10 21 10l52 -49
c-20 -49 -80 -96 -139 -96c0 0 66 -30 66 -122c0 -83 -49 -120 -114 -139c-39 -12 -162 -30 -168 -66c-5 -24 46 -43 130 -55c108 -16 203 -31 203 -143zM328 311c0 60 -35 119 -101 119s-101 -59 -101 -119c0 -62 36 -118 101 -118c66 0 101 59 101 118zM384 -103
c0 65 -68 98 -144 98c-68 0 -153 -35 -153 -103c0 -63 61 -106 148 -103c96 3 149 46 149 108z" />
    <glyph glyph-name="h" unicode="h" horiz-adv-x="553" 
d="M472 0c0 0 -50 1 -76 1c-25 0 -67 -1 -67 -1c-6 8 -4 17 0 22c18 0 31 11 31 26c1 60 4 195 3 243c-3 87 -22 137 -100 126c-63 -9 -128 -101 -132 -170c-3 -50 -2 -149 1 -199c1 -15 17 -26 32 -26c4 -7 4 -16 0 -22c0 0 -41 1 -67 1c-25 0 -67 -1 -67 -1
c-7 7 -4 16 0 22c18 0 33 11 34 26v605c-1 18 -18 28 -39 28c-4 6 -4 15 0 22l93 31c6 -1 8 -1 13 -5c0 0 -2 -48 -2 -78v-244c0 -15 -3 -54 -3 -54l6 -1s15 24 23 35c18 24 61 69 120 77c116 15 154 -40 154 -157v-259c0 -18 15 -26 43 -26c3 -6 5 -14 0 -22z" />
    <glyph glyph-name="i" unicode="i" horiz-adv-x="255" 
d="M165 0c0 0 -42 1 -68 1c-25 0 -67 -1 -67 -1c-5 7 -5 16 0 22c18 0 33 10 34 26c0 54 2 283 0 329c-1 17 -18 28 -39 28c-4 7 -4 16 0 22l99 31c6 -1 8 -1 11 -5c0 0 -3 -54 -3 -128c0 0 1 -225 1 -277c1 -16 17 -26 32 -26c4 -5 6 -13 0 -22zM139 598
c-2 -27 -17 -63 -41 -63c-23 0 -39 36 -41 63c-1 26 15 46 41 46s42 -20 41 -46z" />
    <glyph glyph-name="j" unicode="j" horiz-adv-x="259" 
d="M139 453c0 0 -3 -64 -4 -138v-169c0 -74 -3 -192 -26 -247c-26 -64 -70 -114 -114 -151c-11 10 -11 16 -6 24c0 0 46 39 61 103c16 66 21 161 19 271c0 0 -1 139 -4 231c-1 17 -17 28 -38 28c-4 8 -4 17 0 22l100 31c7 0 10 -2 12 -5zM139 598c-1 -27 -17 -63 -41 -63
c-23 0 -39 36 -41 63c-1 26 15 46 41 46s42 -20 41 -46z" />
    <glyph glyph-name="k" unicode="k" horiz-adv-x="539" 
d="M164 0c0 0 -41 1 -67 1c-25 0 -67 -1 -67 -1c-4 8 -3 17 0 22c18 0 31 10 31 26c3 120 2 492 0 605c0 17 -15 28 -36 28c-6 7 -6 16 0 22l97 31c6 0 9 -1 11 -5c0 0 -3 -116 -3 -190c-1 -192 0 -426 1 -491c0 -16 18 -26 33 -26c5 -6 5 -15 0 -22zM506 -72
c2 -4 2 -6 -1 -10l-36 -16l-313 337l211 217l80 2c4 -2 4 -8 2 -13l-167 -139c-30 -25 -40 -36 -40 -36s12 -12 24 -26z" />
    <glyph glyph-name="l" unicode="l" horiz-adv-x="255" 
d="M174 0c0 0 -51 1 -77 1c-25 0 -67 -1 -67 -1c-4 6 -4 15 0 22c18 0 32 10 33 26c0 68 0 511 -1 605c0 17 -14 28 -47 28c-6 8 -6 17 0 22c29 0 108 31 108 31c6 -1 8 -2 11 -5c0 0 -3 -85 -3 -159c0 -85 0 -461 1 -522c1 -16 15 -26 42 -26c3 -5 5 -13 0 -22z" />
    <glyph glyph-name="m" unicode="m" horiz-adv-x="832" 
d="M752 0c0 0 -51 1 -77 1c-25 0 -66 -1 -66 -1c-4 6 -4 15 0 22c18 0 31 11 32 26c3 57 3 179 1 243c-3 70 -16 140 -99 127c-70 -12 -124 -103 -125 -172c-1 -44 -1 -133 0 -198c0 -16 18 -26 33 -26c4 -7 4 -16 0 -22c0 0 -41 1 -67 1c-25 0 -65 -1 -65 -1
c-5 8 -4 17 0 22c17 0 31 11 31 26c1 69 3 184 1 243c-2 70 -14 137 -98 128c-61 -7 -120 -109 -122 -177c-1 -52 0 -137 1 -194c1 -15 17 -26 32 -26c4 -6 4 -15 0 -22c0 0 -41 1 -67 1c-25 0 -67 -1 -67 -1c-4 8 -4 17 0 22c18 0 32 10 32 26c2 89 4 248 0 329
c0 17 -16 28 -37 28c-5 7 -4 16 0 22l92 31c6 -1 9 -2 11 -5v-104l23 38c20 32 60 68 114 75c109 16 144 -51 144 -114c0 0 16 28 26 43c19 26 56 63 120 70c119 15 153 -37 153 -154c0 -67 1 -207 1 -259c1 -16 13 -26 43 -26c4 -6 4 -15 0 -22z" />
    <glyph glyph-name="n" unicode="n" horiz-adv-x="553" 
d="M474 0c0 0 -52 1 -78 1c-25 0 -66 -1 -66 -1c-4 6 -4 15 0 22c18 0 31 11 31 26c1 45 3 180 2 232c-3 101 -25 150 -105 137c-57 -10 -125 -102 -128 -171c-2 -55 -2 -149 1 -198c1 -15 18 -26 33 -26c5 -5 6 -14 0 -22c0 0 -41 1 -67 1c-25 0 -67 -1 -67 -1
c-4 8 -4 17 0 22c18 0 32 10 33 26c0 67 0 253 -1 329c0 17 -16 28 -37 28c-4 6 -4 15 0 22l92 31c5 0 7 -1 11 -5v-102l25 39c18 25 69 64 118 71c131 19 160 -51 158 -164c-1 -57 1 -201 2 -249c1 -16 14 -26 43 -26c5 -5 6 -14 0 -22z" />
    <glyph glyph-name="o" unicode="o" horiz-adv-x="585" 
d="M500 228c0 -135 -94 -234 -230 -234c-138 0 -230 92 -230 234c0 137 96 235 230 236c138 1 230 -90 230 -236zM421 229c-2 123 -60 200 -155 196c-90 -4 -149 -85 -147 -200c2 -120 62 -195 155 -193c94 3 149 82 147 197z" />
    <glyph glyph-name="p" unicode="p" horiz-adv-x="576" 
d="M488 226c-5 -135 -92 -232 -223 -232c-65 0 -107 20 -134 42c0 0 2 -18 2 -31c0 -62 -1 -147 2 -223c1 -14 17 -26 32 -26c4 -6 4 -15 0 -22c0 0 -41 1 -67 1c-25 0 -69 -1 -69 -1c-4 6 -4 15 0 22c18 0 31 11 31 26c2 104 2 505 0 595c0 17 -16 28 -37 28
c-5 8 -3 17 0 22l96 31c6 -1 10 -2 13 -5v-35s50 46 141 46c135 0 217 -102 213 -238zM409 232c0 115 -61 190 -148 189c-41 -1 -91 -17 -127 -47v-274s57 -62 136 -65c86 -3 139 81 139 197z" />
    <glyph glyph-name="q" unicode="q" horiz-adv-x="589" 
d="M467 -266c-20 2 -1 0 -36 1c-25 1 -67 -1 -67 -1c-6 9 -3 17 0 22c17 0 30 11 31 26c2 100 1 157 1 215c0 13 1 38 1 38s-39 -40 -142 -40c-131 0 -212 102 -212 238s88 225 217 231c69 2 138 -16 207 -21c-4 -171 -8 -459 0 -709zM396 81v324s-58 22 -130 17
c-87 -6 -147 -78 -145 -195c2 -114 61 -188 148 -188c76 0 127 42 127 42z" />
    <glyph glyph-name="r" unicode="r" horiz-adv-x="348" 
d="M300 469v-111c-21 -16 -40 -12 -41 0c0 0 2 48 -37 42c-49 -7 -94 -102 -96 -179c-1 -30 0 -136 1 -173c0 -15 14 -26 41 -26c3 -6 5 -14 0 -22c0 0 -45 1 -71 1c-25 0 -67 -1 -67 -1c-5 5 -6 15 0 22c18 0 33 10 34 26c0 48 2 272 0 329c-1 17 -18 28 -39 28
c-5 8 -3 16 0 22l90 31c5 0 8 -1 12 -5v-112s42 105 140 126c14 3 33 2 33 2z" />
    <glyph glyph-name="s" unicode="s" horiz-adv-x="422" 
d="M332 121c-5 -87 -76 -136 -177 -124c-54 6 -108 39 -108 39l-6 103c10 8 26 8 38 0c0 0 9 -94 89 -105c53 -7 89 15 98 60c9 48 -15 80 -90 110c-78 32 -125 70 -125 139c0 77 64 129 155 121c39 -4 68 -19 81 -24c11 -5 20 -3 20 -3l4 -100c-8 -6 -21 -7 -32 0
c0 0 -20 78 -75 89c-45 9 -91 -5 -96 -57c-4 -49 36 -74 119 -109c69 -28 109 -70 105 -139z" />
    <glyph glyph-name="t" unicode="t" horiz-adv-x="368" 
d="M323 469l-34 -62h-110c-11 0 -31 1 -31 1s1 -18 1 -30c-1 -72 0 -225 0 -225c0 -93 20 -113 62 -115c49 -4 90 28 90 28c3 -1 7 -2 8 -5l-20 -43s-56 -25 -94 -25c-96 0 -114 60 -114 148c0 0 1 165 0 237c0 12 1 30 1 30s-17 -1 -29 -1h-44c-4 6 -5 18 -3 25
c66 18 94 48 135 121c8 1 14 1 19 -6c0 0 -9 -45 -10 -72c0 -11 -2 -29 -2 -29s20 1 31 1h62c42 0 50 15 59 25c7 8 14 3 23 -3z" />
    <glyph glyph-name="u" unicode="u" horiz-adv-x="553" 
d="M364 108c-15 -43 -70 -104 -132 -111c-139 -16 -172 60 -171 175c0 0 3 143 3 205c-1 17 -16 28 -37 28c-6 8 -5 17 0 22l96 31c5 1 8 0 12 -5c0 0 -3 -55 -4 -98l-3 -166c-2 -114 42 -168 120 -145c52 15 110 94 114 190c2 41 1 96 -2 143c0 17 -15 28 -36 28
c-6 8 -5 17 0 22l97 31c6 0 8 -1 11 -5c0 0 -2 -48 -3 -78c-1 -66 0 -211 0 -211c0 -75 9 -104 19 -121c7 -13 21 -21 35 -21c6 -6 6 -15 0 -22h-84c0 0 -11 8 -18 21c-17 33 -17 87 -17 87z" />
    <glyph glyph-name="v" unicode="v" horiz-adv-x="480" 
d="M444 456l-211 -477c-4 -2 -11 -3 -15 0l-173 394c-19 43 -40 32 -61 32c-6 7 -5 16 0 22l100 31c5 1 9 1 13 -3c0 0 7 -40 29 -95l80 -196c15 -36 28 -72 28 -72l24 54l62 144c19 44 28 73 26 87c-3 17 -14 28 -35 28c-4 6 -4 15 0 22l120 33c7 1 9 0 13 -4z" />
    <glyph glyph-name="w" unicode="w" horiz-adv-x="776" 
d="M709 454l-201 -476c-3 -2 -10 -3 -14 0l-117 297c-9 24 -20 64 -20 64s-10 -38 -21 -64l-114 -297c-3 -2 -10 -3 -15 0l-162 395c-18 43 -40 32 -61 32c-4 7 -3 16 0 22l101 31c6 1 10 1 13 -4c0 0 14 -60 43 -133l62 -162c9 -23 19 -58 19 -58s13 37 22 60l113 292
c4 3 12 3 17 0l121 -295c10 -23 19 -57 19 -57l20 56l50 126c13 33 28 80 25 94c-2 17 -13 28 -34 28c-6 7 -5 17 0 22l127 33c5 0 6 -2 7 -6z" />
    <glyph glyph-name="x" unicode="x" horiz-adv-x="449" 
d="M183 329c11 -16 28 -46 28 -46s17 30 28 45l81 121h64l-115 -172c-9 -14 -28 -36 -28 -36s19 -23 29 -38l134 -203h-76l-97 147c-9 14 -25 41 -25 41s-15 -27 -24 -40l-98 -148h-63l127 192c23 34 30 39 30 39s-21 26 -32 43l-66 99c-26 39 -59 32 -80 32
c-6 7 -5 16 0 22l100 31c5 1 8 1 12 -3c0 0 18 -46 50 -95c0 0 -12 20 21 -31z" />
    <glyph glyph-name="y" unicode="y" horiz-adv-x="476" 
d="M450 456c0 0 -25 -45 -49 -95l-246 -513c-19 -40 -36 -92 -66 -106c-26 -13 -93 -8 -93 -8c-16 17 -9 24 0 24c42 0 91 57 190 266l-143 330c-30 69 -53 51 -74 51c-6 7 -5 16 0 22l106 31c6 -1 10 -2 12 -5c0 0 8 -43 43 -125l77 -181c10 -23 18 -50 18 -50s15 35 23 52
l60 125c17 34 36 89 34 103c-3 17 -14 28 -35 28c-5 8 -3 17 0 22l130 33c6 1 9 1 13 -4z" />
    <glyph glyph-name="z" unicode="z" horiz-adv-x="439" 
d="M364 435c0 0 -168 -236 -251 -364c-9 -13 -27 -35 -27 -35s33 3 49 3h112c77 0 93 67 93 67c5 6 14 6 21 0l-12 -106h-358c-2 3 -2 8 0 10l250 366c8 12 26 34 26 34s-33 -2 -49 -2h-112c-59 0 -72 -61 -72 -61c-6 -5 -15 -6 -22 0l11 102c3 2 5 3 10 3c0 0 23 -6 86 -6
h245c1 -4 1 -8 0 -11z" />
    <glyph glyph-name="Adieresis" unicode="&#xc4;" horiz-adv-x="655" 
 />
    <glyph glyph-name="Odieresis" unicode="&#xd6;" horiz-adv-x="809" 
d="M726 331c0 -203 -156 -344 -343 -344c-186 0 -342 141 -342 344s156 344 342 344c187 0 343 -141 343 -344zM640 330c0 170 -105 297 -258 297s-256 -128 -256 -297c0 -153 103 -295 256 -295s258 142 258 295z" />
    <glyph glyph-name="degree" unicode="&#xb0;" horiz-adv-x="332" 
 />
    <glyph glyph-name="section" unicode="&#xa7;" horiz-adv-x="440" 
 />
    <glyph glyph-name="bullet" unicode="&#x2022;" horiz-adv-x="300" 
 />
    <glyph glyph-name="paragraph" unicode="&#xb6;" horiz-adv-x="626" 
 />
    <glyph glyph-name="germandbls" unicode="&#xdf;" horiz-adv-x="573" 
 />
    <glyph glyph-name="acute" unicode="&#xb4;" horiz-adv-x="0" 
 />
    <glyph glyph-name="guillemotleft" unicode="&#xab;" horiz-adv-x="404" 
 />
    <glyph glyph-name="guillemotright" unicode="&#xbb;" horiz-adv-x="431" 
 />
    <glyph glyph-name="ellipsis" unicode="&#x2026;" horiz-adv-x="939" 
 />
    <glyph glyph-name="nbspace" unicode="&#xa0;" horiz-adv-x="469" 
 />
    <glyph glyph-name="endash" unicode="&#x2013;" 
 />
    <glyph glyph-name="emdash" unicode="&#x2014;" horiz-adv-x="766" 
 />
    <glyph glyph-name="quotedblleft" unicode="&#x201c;" horiz-adv-x="408" 
 />
    <glyph glyph-name="quotedblright" unicode="&#x201d;" horiz-adv-x="423" 
 />
    <glyph glyph-name="quoteleft" unicode="&#x2018;" horiz-adv-x="225" 
 />
    <glyph glyph-name="quoteright" unicode="&#x2019;" horiz-adv-x="225" 
 />
    <glyph glyph-name="fraction" unicode="&#x2044;" horiz-adv-x="404" 
 />
    <glyph glyph-name="fi" unicode="&#xfb01;" horiz-adv-x="555" 
 />
    <glyph glyph-name="fl" unicode="&#xfb02;" horiz-adv-x="555" 
 />
    <glyph glyph-name="periodcentered" unicode="&#xb7;" horiz-adv-x="175" 
 />
    <glyph glyph-name="quotesinglbase" unicode="&#x201a;" horiz-adv-x="238" 
 />
    <glyph glyph-name="quotedblbase" unicode="&#x201e;" horiz-adv-x="438" 
 />
    <glyph glyph-name="circumflex" unicode="&#x2c6;" horiz-adv-x="0" 
 />
    <glyph glyph-name="tilde" unicode="&#x2dc;" horiz-adv-x="0" 
 />
    <glyph glyph-name="minus" unicode="&#x2212;" horiz-adv-x="626" 
 />
    <glyph glyph-name="bar" unicode="|" horiz-adv-x="404" 
 />
    <glyph glyph-name="dollar" unicode="$" horiz-adv-x="511" 
 />
    <glyph glyph-name="longs" unicode="&#x17f;" horiz-adv-x="255" 
 />
    <glyph glyph-name="ck" unicode="&#xf8b6;" horiz-adv-x="914" 
 />
    <glyph glyph-name="ch" unicode="&#xf8b5;" horiz-adv-x="943" 
 />
    <glyph glyph-name="tt" unicode="&#xf8b7;" horiz-adv-x="669" 
 />
    <glyph glyph-name="mm" unicode="&#xf8b8;" horiz-adv-x="1414" 
 />
    <glyph glyph-name="ft" unicode="&#xf8b9;" horiz-adv-x="634" 
 />
    <glyph glyph-name="ff" unicode="&#xfb00;" horiz-adv-x="576" 
 />
    <glyph glyph-name="numbersign" unicode="#" horiz-adv-x="716" 
 />
    <glyph glyph-name="guilsinglleft" unicode="&#x2039;" horiz-adv-x="293" 
 />
    <glyph glyph-name="guilsinglright" unicode="&#x203a;" horiz-adv-x="269" 
 />
    <glyph glyph-name="R2" unicode="&#xf8e3;" horiz-adv-x="600" 
 />
    <glyph glyph-name="Euro" unicode="&#x20ac;" horiz-adv-x="710" 
 />
    <glyph glyph-name="dotaccent" unicode="&#x2d9;" horiz-adv-x="0" 
 />
    <glyph glyph-name="cedilla" unicode="&#xb8;" horiz-adv-x="0" 
 />
    <glyph glyph-name="dieresis" unicode="&#xa8;" horiz-adv-x="0" 
 />
    <glyph glyph-name="questiondown" unicode="&#xbf;" horiz-adv-x="417" 
 />
    <glyph glyph-name="exclamdown" unicode="&#xa1;" horiz-adv-x="283" 
 />
    <glyph glyph-name="ring" unicode="&#x2da;" horiz-adv-x="0" 
 />
    <glyph glyph-name="Agrave" unicode="&#xc0;" horiz-adv-x="655" 
 />
    <glyph glyph-name="Aacute" unicode="&#xc1;" horiz-adv-x="655" 
 />
    <glyph glyph-name="Acircumflex" unicode="&#xc2;" horiz-adv-x="655" 
 />
    <glyph glyph-name="Atilde" unicode="&#xc3;" horiz-adv-x="655" 
 />
    <glyph glyph-name="Aring" unicode="&#xc5;" horiz-adv-x="655" 
 />
    <glyph glyph-name="AE" unicode="&#xc6;" horiz-adv-x="1055" 
 />
    <glyph glyph-name="Ccedilla" unicode="&#xc7;" horiz-adv-x="670" 
 />
    <glyph glyph-name="Egrave" unicode="&#xc8;" horiz-adv-x="479" 
 />
    <glyph glyph-name="Eacute" unicode="&#xc9;" horiz-adv-x="479" 
 />
    <glyph glyph-name="Ecircumflex" unicode="&#xca;" horiz-adv-x="479" 
 />
    <glyph glyph-name="Edieresis" unicode="&#xcb;" horiz-adv-x="479" 
 />
    <glyph glyph-name="Igrave" unicode="&#xcc;" horiz-adv-x="258" 
 />
    <glyph glyph-name="Iacute" unicode="&#xcd;" horiz-adv-x="258" 
 />
    <glyph glyph-name="Icircumflex" unicode="&#xce;" horiz-adv-x="258" 
 />
    <glyph glyph-name="Idieresis" unicode="&#xcf;" horiz-adv-x="258" 
 />
    <glyph glyph-name="Eth" unicode="&#xd0;" horiz-adv-x="730" 
 />
    <glyph glyph-name="Ntilde" unicode="&#xd1;" horiz-adv-x="723" 
 />
    <glyph glyph-name="Ograve" unicode="&#xd2;" horiz-adv-x="809" 
 />
    <glyph glyph-name="Oacute" unicode="&#xd3;" horiz-adv-x="809" 
 />
    <glyph glyph-name="Ocircumflex" unicode="&#xd4;" horiz-adv-x="809" 
 />
    <glyph glyph-name="Otilde" unicode="&#xd5;" horiz-adv-x="809" 
 />
    <glyph glyph-name="Oslash" unicode="&#xd8;" horiz-adv-x="809" 
 />
    <glyph glyph-name="Ugrave" unicode="&#xd9;" horiz-adv-x="668" 
 />
    <glyph glyph-name="Uacute" unicode="&#xda;" horiz-adv-x="668" 
 />
    <glyph glyph-name="Ucircumflex" unicode="&#xdb;" horiz-adv-x="668" 
 />
    <glyph glyph-name="Yacute" unicode="&#xdd;" horiz-adv-x="486" 
 />
    <glyph glyph-name="Thorn" unicode="&#xde;" horiz-adv-x="478" 
 />
    <glyph glyph-name="agrave" unicode="&#xe0;" horiz-adv-x="502" 
 />
    <glyph glyph-name="Udieresis" unicode="&#xdc;" horiz-adv-x="668" 
 />
    <glyph glyph-name="aacute" unicode="&#xe1;" horiz-adv-x="502" 
 />
    <glyph glyph-name="acircumflex" unicode="&#xe2;" horiz-adv-x="502" 
 />
    <glyph glyph-name="atilde" unicode="&#xe3;" horiz-adv-x="502" 
 />
    <glyph glyph-name="adieresis" unicode="&#xe4;" horiz-adv-x="502" 
 />
    <glyph glyph-name="aring" unicode="&#xe5;" horiz-adv-x="502" 
 />
    <glyph glyph-name="ae" unicode="&#xe6;" horiz-adv-x="803" 
 />
    <glyph glyph-name="ccedilla" unicode="&#xe7;" horiz-adv-x="417" 
 />
    <glyph glyph-name="egrave" unicode="&#xe8;" horiz-adv-x="543" 
 />
    <glyph glyph-name="eacute" unicode="&#xe9;" horiz-adv-x="543" 
 />
    <glyph glyph-name="ecircumflex" unicode="&#xea;" horiz-adv-x="543" 
 />
    <glyph glyph-name="edieresis" unicode="&#xeb;" horiz-adv-x="543" 
 />
    <glyph glyph-name="dotlessi" unicode="&#x131;" horiz-adv-x="255" 
 />
    <glyph glyph-name="igrave" unicode="&#xec;" horiz-adv-x="255" 
 />
    <glyph glyph-name="iacute" unicode="&#xed;" horiz-adv-x="255" 
 />
    <glyph glyph-name="icircumflex" unicode="&#xee;" horiz-adv-x="255" 
 />
    <glyph glyph-name="idieresis" unicode="&#xef;" horiz-adv-x="255" 
 />
    <glyph glyph-name="eth" unicode="&#xf0;" 
 />
    <glyph glyph-name="ntilde" unicode="&#xf1;" horiz-adv-x="553" 
 />
    <glyph glyph-name="ograve" unicode="&#xf2;" horiz-adv-x="585" 
 />
    <glyph glyph-name="oacute" unicode="&#xf3;" horiz-adv-x="585" 
 />
    <glyph glyph-name="ocircumflex" unicode="&#xf4;" horiz-adv-x="585" 
 />
    <glyph glyph-name="otilde" unicode="&#xf5;" horiz-adv-x="585" 
 />
    <glyph glyph-name="odieresis" unicode="&#xf6;" horiz-adv-x="585" 
 />
    <glyph glyph-name="oslash" unicode="&#xf8;" horiz-adv-x="585" 
 />
    <glyph glyph-name="ugrave" unicode="&#xf9;" horiz-adv-x="553" 
 />
    <glyph glyph-name="uacute" unicode="&#xfa;" horiz-adv-x="553" 
 />
    <glyph glyph-name="ucircumflex" unicode="&#xfb;" horiz-adv-x="553" 
 />
    <glyph glyph-name="udieresis" unicode="&#xfc;" horiz-adv-x="553" 
 />
    <glyph glyph-name="yacute" unicode="&#xfd;" horiz-adv-x="476" 
 />
    <glyph glyph-name="thorn" unicode="&#xfe;" horiz-adv-x="576" 
 />
    <glyph glyph-name="ydieresis" unicode="&#xff;" horiz-adv-x="476" 
 />
    <glyph glyph-name="copyright" unicode="&#xa9;" horiz-adv-x="809" 
 />
    <glyph glyph-name="registered" unicode="&#xae;" horiz-adv-x="809" 
 />
  </font>
</defs>
</svg>
