<?xml version="1.0" standalone="no"?>
<!DOCTYPE svg PUBLIC "-//W3C//DTD SVG 20010904//EN"
 "http://www.w3.org/TR/2001/REC-SVG-20010904/DTD/svg10.dtd">
<svg version="1.0" xmlns="http://www.w3.org/2000/svg"
 width="600.000000pt" height="600.000000pt" viewBox="-0 -0 600.000000 600.000000"
 preserveAspectRatio="xMidYMid meet">
 <!-- WHITE BACKGROUND (added here) -->
 <rect width="600" height="600" fill="white"/>
<g transform="translate(80.000000,540.000000) scale(0.080000,-0.080000)"
fill="#000000" stroke="none">
<path d="M1600 2970 l0 -2130 703 0 c396 0 750 4 812 10 326 30 616 140 835
315 215 172 357 401 404 652 34 185 29 385 -15 545 -26 95 -97 244 -153 322
-113 157 -327 315 -506 370 -30 10 -62 20 -70 22 -8 3 28 26 81 52 132 65 222
128 307 214 85 86 132 153 182 262 54 116 71 192 77 344 13 324 -81 568 -301
780 -101 97 -180 151 -310 212 -125 59 -224 91 -397 127 l-134 28 -757 3 -758
3 0 -2131z m1503 1650 c230 -39 391 -125 495 -264 139 -188 161 -445 56 -664
-64 -132 -213 -263 -376 -330 -162 -65 -160 -65 -665 -69 l-463 -4 0 675 0
676 419 0 c371 0 432 -2 534 -20z m-23 -1790 c137 -13 241 -43 359 -101 174
-86 296 -227 358 -414 24 -72 27 -96 27 -230 1 -171 -12 -234 -70 -349 -93
-184 -251 -313 -470 -385 -142 -46 -208 -51 -690 -51 l-444 0 0 770 0 770 418
0 c229 0 460 -5 512 -10z"/>
</g>
</svg>
